<?xml version="1.0" encoding="utf-8"?>
<svg width="20" height="20" viewBox="0 0 20 20" fill="none" xmlns="http://www.w3.org/2000/svg">
  <g>
    <rect width="20" height="20" />
    <path id="Shape" d="M6.24512 0C6.24512 0 5.83659 2.10287 5.83659 2.10287C5.14978 2.36188 4.51909 2.72494 3.96647 3.17871C3.96647 3.17871 1.94661 2.4821 1.94661 2.4821L0 5.85124C0 5.85124 1.61784 7.25749 1.61784 7.25749C1.55564 7.63935 1.52344 7.99321 1.52344 8.33334C1.52344 8.67398 1.55661 9.02719 1.61784 9.40919C1.61784 9.40919 1.61784 9.41081 1.61784 9.41081L0 10.8171L1.94661 14.1846C1.94661 14.1846 3.96484 13.4896 3.96484 13.4896C4.51752 13.9436 5.14963 14.3046 5.83659 14.5638C5.83659 14.5638 6.24512 16.6667 6.24512 16.6667L10.1351 16.6667C10.1351 16.6667 10.5436 14.5638 10.5436 14.5638C11.2309 14.3046 11.8609 13.9422 12.4137 13.488C12.4137 13.488 14.4336 14.1846 14.4336 14.1846L16.3786 10.8171C16.3786 10.8171 14.7624 9.40919 14.7624 9.40919C14.8246 9.02733 14.8568 8.67347 14.8568 8.33334C14.8568 7.99372 14.8244 7.64032 14.7624 7.25912C14.7624 7.25912 14.7624 7.25749 14.7624 7.25749L16.3802 5.84961L14.4336 2.4821C14.4336 2.4821 12.4154 3.17709 12.4154 3.17709C11.8627 2.72307 11.2306 2.36203 10.5436 2.10287C10.5436 2.10287 10.1351 0 10.1351 0L6.24512 0L6.24512 0ZM7.61882 1.66667L8.7614 1.66667L9.08529 3.33333C9.08529 3.33333 9.95443 3.66211 9.95443 3.66211C10.4783 3.85956 10.949 4.13063 11.3574 4.46615C11.3574 4.46615 12.0768 5.05534 12.0768 5.05534L13.6784 4.50521L14.2497 5.49317L12.9704 6.60645L13.1169 7.52279C13.1169 7.52279 13.1169 7.52442 13.1169 7.52442C13.1678 7.83686 13.1901 8.09898 13.1901 8.33334C13.1901 8.5677 13.1678 8.82977 13.1169 9.14225C13.1169 9.14225 12.9688 10.0586 12.9688 10.0586L14.2481 11.1719L13.6768 12.1615L12.0768 11.6097C12.0768 11.6097 11.3558 12.2005 11.3558 12.2005C10.9474 12.536 10.4783 12.8071 9.95443 13.0046C9.95443 13.0046 9.9528 13.0046 9.9528 13.0046L9.08366 13.3333L8.75977 15L7.61882 15L7.29492 13.3333C7.29492 13.3333 6.42578 13.0046 6.42578 13.0046C5.90189 12.8071 5.43121 12.536 5.02279 12.2005C5.02279 12.2005 4.30339 11.6113 4.30339 11.6113L2.70182 12.1615L2.13053 11.1735L3.41146 10.0586L3.26335 9.14551C3.26335 9.14551 3.26335 9.14388 3.26335 9.14388C3.21312 8.83008 3.1901 8.56723 3.1901 8.33334C3.1901 8.09898 3.21239 7.8369 3.26335 7.52442C3.26335 7.52442 3.41146 6.60807 3.41146 6.60807L2.13053 5.49479L2.70182 4.50521L4.30339 5.05697C4.30339 5.05697 5.02279 4.46615 5.02279 4.46615C5.43121 4.13063 5.90189 3.85956 6.42578 3.66211C6.42578 3.66211 7.29492 3.33333 7.29492 3.33333L7.61882 1.66667L7.61882 1.66667ZM8.19011 5C6.35967 5 4.85677 6.5029 4.85677 8.33334C4.85677 10.1638 6.35967 11.6667 8.19011 11.6667C10.0205 11.6667 11.5234 10.1638 11.5234 8.33334C11.5234 6.5029 10.0205 5 8.19011 5C8.19011 5 8.19011 5 8.19011 5ZM8.1901 6.66667C9.11633 6.66667 9.85677 7.4071 9.85677 8.33333C9.85677 9.25957 9.11633 10 8.1901 10C7.26387 10 6.52344 9.25957 6.52344 8.33333C6.52344 7.4071 7.26387 6.66667 8.1901 6.66667C8.1901 6.66667 8.1901 6.66667 8.1901 6.66667Z" fill="#333333" transform="translate(1.81 1.667)" />
  </g>
</svg>