<?xml version="1.0" encoding="utf-8"?>
<svg width="258" height="258" viewBox="0 0 258 258" fill="none" xmlns="http://www.w3.org/2000/svg">
  <g>
    <path d="M102.125 0L0 0L0 172C0 172 102.125 172 102.125 172C108.064 172 112.875 167.189 112.875 161.25C112.875 161.25 112.875 10.75 112.875 10.75C112.875 4.81063 108.064 0 102.125 0C102.125 0 102.125 0 102.125 0Z" fill="#0078D4" fill-rule="evenodd" transform="translate(129 43)" />
    <path d="M112.875 0C112.875 0 10.75 0 10.75 0C4.81063 0 0 4.81063 0 10.75C0 10.75 0 161.25 0 161.25C0 167.189 4.81063 172 10.75 172C10.75 172 112.875 172 112.875 172L112.875 0L112.875 0Z" fill="#1B9DE2" fill-rule="evenodd" transform="translate(16.125 43)" />
    <path d="M0 16.125C0 25.0314 7.21863 32.25 16.125 32.25C16.125 32.25 16.125 0 16.125 0C7.21863 0 0 7.21861 0 16.125C0 16.125 0 16.125 0 16.125Z" fill="#1B9DE2" fill-rule="evenodd" transform="translate(112.875 188.125)" />
    <path d="M16.125 16.125C16.125 7.21861 8.90637 0 0 0C0 0 0 32.25 0 32.25C8.90637 32.25 16.125 25.0314 16.125 16.125C16.125 16.125 16.125 16.125 16.125 16.125Z" fill="#0078D4" fill-rule="evenodd" transform="translate(129 188.125)" />
    <path d="M102.125 0C102.125 0 5.375 0 5.375 0C2.408 0 0 2.408 0 5.375C0 5.375 0 155.875 0 155.875C0 158.842 2.408 161.25 5.375 161.25C5.375 161.25 102.125 161.25 102.125 161.25L102.125 0L102.125 0Z" fill="#FFFFFF" fill-rule="evenodd" transform="translate(26.875 43)" />
    <path d="M96.75 0L0 0L0 161.25C0 161.25 96.75 161.25 96.75 161.25C99.717 161.25 102.125 158.842 102.125 155.875C102.125 155.875 102.125 5.375 102.125 5.375C102.125 2.408 99.717 0 96.75 0C96.75 0 96.75 0 96.75 0Z" fill="#F0F0F0" fill-rule="evenodd" transform="translate(129 43)" />
    <path d="M0 0C0 0 0 83.85 0 83.85C0 88.15 3.22501 91.375 7.52499 91.375C8.60001 91.375 10.2125 90.8375 11.2875 90.3C11.2875 90.3 26.875 80.625 26.875 80.625C26.875 80.625 42.4625 90.3 42.4625 90.3C43.5375 90.8375 44.6125 91.375 46.225 91.375C48.375 91.375 49.9875 90.8375 51.6 89.225C52.675 87.6125 53.75 86 53.75 83.85C53.75 83.85 53.75 0 53.75 0L0 0L0 0Z" fill="#000000" fill-rule="evenodd" fill-opacity="0.05" transform="translate(161.25 43)" />
    <path d="M0 0C0 0 0 83.3125 0 83.3125C0 86 2.14999 88.15 4.83749 88.15C5.91251 88.15 6.9875 88.15 7.52499 87.6125C7.52499 87.6125 24.1875 77.4 24.1875 77.4C24.1875 77.4 40.85 88.15 40.85 88.15C41.925 88.6875 42.4625 88.6875 43.5375 88.6875C44.6125 88.6875 46.225 88.15 46.7625 86.5375C47.8375 86 48.375 84.3875 48.375 83.3125C48.375 83.3125 48.375 0 48.375 0L0 0L0 0Z" fill="#000000" fill-rule="evenodd" fill-opacity="0.07" transform="translate(163.938 43)" />
    <path d="M43 0L0 0C0 0 0 83.85 0 83.85C0 85.4625 1.6125 86.5375 3.22501 85.4625C3.22501 85.4625 21.5 74.175 21.5 74.175C21.5 74.175 39.775 85.4625 39.775 85.4625C41.3875 86.5375 43 85.4625 43 83.85C43 83.85 43 0 43 0L43 0Z" fill="#CF1928" fill-rule="evenodd" transform="translate(166.625 43)" />
  </g>
</svg>