<?xml version="1.0" encoding="utf-8"?>
<svg width="225" height="20" viewBox="0 0 225 20" fill="none" xmlns="http://www.w3.org/2000/svg">
  <defs>
    <clipPath id="clip_path_1">
      <rect width="225" height="20" />
    </clipPath>
  </defs>
  <path d="M7.50586 12.1133L7.02734 10.8555L2.95313 10.8555L2.47461 12.1406Q2.19434 12.8926 1.99609 13.1558Q1.79785 13.4189 1.34668 13.4189Q0.963867 13.4189 0.669922 13.1387Q0.375977 12.8584 0.375977 12.5029Q0.375977 12.2979 0.444336 12.0791Q0.512695 11.8604 0.669922 11.4707L3.2334 4.96289Q3.34277 4.68262 3.49658 4.28955Q3.65039 3.89649 3.82471 3.63672Q3.99902 3.37695 4.28271 3.21631Q4.56641 3.05566 4.9834 3.05566Q5.40723 3.05566 5.69092 3.21631Q5.97461 3.37695 6.14893 3.62988Q6.32324 3.88281 6.44287 4.17334Q6.5625 4.46387 6.74707 4.94922L9.36523 11.416Q9.67285 12.1543 9.67285 12.4893Q9.67285 12.8379 9.38232 13.1284Q9.0918 13.4189 8.68164 13.4189Q8.44238 13.4189 8.27148 13.3335Q8.10058 13.248 7.98438 13.1011Q7.86816 12.9541 7.73486 12.6499Q7.60156 12.3457 7.50586 12.1133ZM3.48633 9.33105L6.48047 9.33105L4.96973 5.19531L3.48633 9.33105ZM17.7256 11.1084Q17.7256 11.457 17.5171 11.8535Q17.3086 12.25 16.8813 12.6089Q16.4541 12.9678 15.8047 13.1865Q15.1553 13.4053 14.3418 13.4053Q12.6123 13.4053 11.6416 12.397Q10.6709 11.3887 10.6709 9.69336Q10.6709 8.54492 11.1152 7.66309Q11.5596 6.78125 12.4004 6.29932Q13.2412 5.81738 14.4102 5.81738Q15.1348 5.81738 15.7397 6.0293Q16.3447 6.24121 16.7651 6.57617Q17.1855 6.91113 17.4077 7.29053Q17.6299 7.66992 17.6299 7.99805Q17.6299 8.33301 17.3804 8.56543Q17.1309 8.79785 16.7754 8.79785Q16.543 8.79785 16.3892 8.67822Q16.2354 8.55859 16.0439 8.29199Q15.7021 7.77246 15.3296 7.5127Q14.957 7.25293 14.3828 7.25293Q13.5557 7.25293 13.0498 7.89893Q12.5439 8.54492 12.5439 9.66602Q12.5439 10.1924 12.6738 10.6333Q12.8037 11.0742 13.0498 11.3853Q13.2959 11.6963 13.6445 11.8569Q13.9932 12.0176 14.4102 12.0176Q14.9707 12.0176 15.3706 11.7578Q15.7705 11.498 16.0781 10.9648Q16.249 10.6504 16.4473 10.4727Q16.6455 10.2949 16.9326 10.2949Q17.2744 10.2949 17.5 10.5547Q17.7256 10.8145 17.7256 11.1084ZM24.0693 12.3662Q23.3926 12.8926 22.7603 13.1558Q22.1279 13.4189 21.3418 13.4189Q20.624 13.4189 20.0806 13.1353Q19.5371 12.8516 19.2432 12.3662Q18.9492 11.8809 18.9492 11.3135Q18.9492 10.5479 19.4346 10.0078Q19.9199 9.46777 20.7676 9.2832Q20.9453 9.24219 21.6494 9.09863Q22.3535 8.95508 22.856 8.83545Q23.3584 8.71582 23.9463 8.54492Q23.9121 7.80664 23.6489 7.46143Q23.3857 7.11621 22.5586 7.11621Q21.8477 7.11621 21.4888 7.31445Q21.1299 7.5127 20.8735 7.90918Q20.6172 8.30566 20.5112 8.43213Q20.4053 8.55859 20.0566 8.55859Q19.7422 8.55859 19.5132 8.35693Q19.2842 8.15527 19.2842 7.84082Q19.2842 7.34863 19.6328 6.88379Q19.9814 6.41895 20.7197 6.11816Q21.458 5.81738 22.5586 5.81738Q23.7891 5.81738 24.4932 6.10791Q25.1973 6.39844 25.4878 7.02734Q25.7783 7.65625 25.7783 8.69531Q25.7783 9.35156 25.7749 9.80957Q25.7715 10.2676 25.7646 10.8281Q25.7646 11.3545 25.939 11.9253Q26.1133 12.4961 26.1133 12.6602Q26.1133 12.9473 25.8433 13.1831Q25.5732 13.4189 25.2314 13.4189Q24.9443 13.4189 24.6641 13.1489Q24.3838 12.8789 24.0693 12.3662ZM23.9463 9.66602Q23.5361 9.81641 22.7534 9.98389Q21.9707 10.1514 21.6699 10.23Q21.3691 10.3086 21.0957 10.5376Q20.8223 10.7666 20.8223 11.1768Q20.8223 11.6006 21.1436 11.8979Q21.4648 12.1953 21.9844 12.1953Q22.5381 12.1953 23.0063 11.9526Q23.4746 11.71 23.6934 11.3271Q23.9463 10.9033 23.9463 9.93262L23.9463 9.66602ZM32.7852 12.3525L32.7852 12.168Q32.4092 12.5986 32.0435 12.8687Q31.6777 13.1387 31.2505 13.2788Q30.8232 13.4189 30.3174 13.4189Q29.6475 13.4189 29.0767 13.1353Q28.5059 12.8516 28.0889 12.3252Q27.6719 11.7988 27.4565 11.0879Q27.2412 10.377 27.2412 9.5498Q27.2412 7.79981 28.0957 6.82227Q28.9502 5.84473 30.3447 5.84473Q31.1514 5.84473 31.7051 6.12158Q32.2588 6.39844 32.7852 6.97266L32.7852 4.21777Q32.7852 3.64355 33.0142 3.34961Q33.2432 3.05566 33.667 3.05566Q34.0908 3.05566 34.3198 3.32568Q34.5488 3.5957 34.5488 4.12207L34.5488 12.3525Q34.5488 12.8857 34.3027 13.1523Q34.0566 13.4189 33.667 13.4189Q33.2842 13.4189 33.0347 13.1421Q32.7852 12.8652 32.7852 12.3525ZM29.1143 9.61133Q29.1143 10.3701 29.3501 10.9033Q29.5859 11.4365 29.9961 11.7065Q30.4063 11.9766 30.8916 11.9766Q31.3838 11.9766 31.7905 11.7202Q32.1973 11.4639 32.4399 10.9341Q32.6826 10.4043 32.6826 9.61133Q32.6826 8.86621 32.4399 8.32959Q32.1973 7.79297 31.7837 7.50928Q31.3701 7.22559 30.8779 7.22559Q30.3652 7.22559 29.9619 7.51611Q29.5586 7.80664 29.3364 8.3501Q29.1143 8.89355 29.1143 9.61133ZM41.6309 10.083L37.9805 10.083Q37.9873 10.7188 38.2368 11.2041Q38.4863 11.6895 38.8999 11.9355Q39.3135 12.1816 39.8125 12.1816Q40.1475 12.1816 40.4243 12.103Q40.7012 12.0244 40.9609 11.8569Q41.2207 11.6895 41.4395 11.498Q41.6582 11.3066 42.0068 10.9785Q42.1504 10.8555 42.417 10.8555Q42.7041 10.8555 42.8818 11.0127Q43.0596 11.1699 43.0596 11.457Q43.0596 11.71 42.8613 12.0483Q42.6631 12.3867 42.2632 12.6978Q41.8633 13.0088 41.2583 13.2139Q40.6533 13.4189 39.8672 13.4189Q38.0693 13.4189 37.0713 12.3936Q36.0732 11.3682 36.0732 9.61133Q36.0732 8.78418 36.3193 8.07666Q36.5654 7.36914 37.0371 6.86328Q37.5088 6.35742 38.1992 6.0874Q38.8896 5.81738 39.7305 5.81738Q40.8242 5.81738 41.6069 6.27881Q42.3896 6.74023 42.7793 7.47168Q43.1689 8.20313 43.1689 8.96191Q43.1689 9.66602 42.7656 9.87451Q42.3623 10.083 41.6309 10.083ZM37.9805 9.02344L41.3643 9.02344Q41.2959 8.06641 40.8481 7.59131Q40.4004 7.11621 39.6689 7.11621Q38.9717 7.11621 38.5239 7.59814Q38.0762 8.08008 37.9805 9.02344ZM50.9482 9.76172L50.9482 12.2432Q50.9482 12.8311 50.6816 13.125Q50.415 13.4189 49.9775 13.4189Q49.5537 13.4189 49.2905 13.125Q49.0273 12.8311 49.0273 12.2432L49.0273 9.26953Q49.0273 8.56543 48.9795 8.17578Q48.9316 7.78613 48.7197 7.53662Q48.5078 7.28711 48.0498 7.28711Q47.1338 7.28711 46.8433 7.91602Q46.5527 8.54492 46.5527 9.7207L46.5527 12.2432Q46.5527 12.8242 46.2896 13.1216Q46.0264 13.4189 45.5957 13.4189Q45.1719 13.4189 44.9019 13.1216Q44.6318 12.8242 44.6318 12.2432L44.6318 6.9043Q44.6318 6.37793 44.8745 6.10449Q45.1172 5.83105 45.5137 5.83105Q45.8965 5.83105 46.1528 6.0874Q46.4092 6.34375 46.4092 6.79492L46.4092 6.97266Q46.8945 6.3916 47.4482 6.11816Q48.002 5.84473 48.6787 5.84473Q49.3828 5.84473 49.8887 6.125Q50.3945 6.40527 50.7227 6.97266Q51.1943 6.39844 51.7344 6.12158Q52.2744 5.84473 52.9307 5.84473Q53.6963 5.84473 54.25 6.14551Q54.8037 6.44629 55.0771 7.00684Q55.3164 7.5127 55.3164 8.59961L55.3164 12.2432Q55.3164 12.8311 55.0498 13.125Q54.7832 13.4189 54.3457 13.4189Q53.9219 13.4189 53.6519 13.1216Q53.3818 12.8242 53.3818 12.2432L53.3818 9.10547Q53.3818 8.50391 53.3306 8.1416Q53.2793 7.7793 53.0537 7.5332Q52.8281 7.28711 52.3701 7.28711Q52.001 7.28711 51.6694 7.50586Q51.3379 7.72461 51.1533 8.09375Q50.9482 8.56543 50.9482 9.76172ZM58.9941 6.89063L58.9941 12.2842Q58.9941 12.8447 58.7275 13.1318Q58.4609 13.4189 58.0508 13.4189Q57.6406 13.4189 57.3843 13.125Q57.1279 12.8311 57.1279 12.2842L57.1279 6.94531Q57.1279 6.3916 57.3843 6.11133Q57.6406 5.83106 58.0508 5.83105Q58.4609 5.83105 58.7275 6.11133Q58.9941 6.3916 58.9941 6.89063ZM58.0713 4.96289Q57.6816 4.96289 57.4048 4.72363Q57.1279 4.48438 57.1279 4.04688Q57.1279 3.65039 57.4116 3.39404Q57.6953 3.1377 58.0713 3.1377Q58.4336 3.1377 58.7139 3.37012Q58.9941 3.60254 58.9941 4.04688Q58.9941 4.47754 58.7207 4.72021Q58.4473 4.96289 58.0713 4.96289ZM67.6143 11.1084Q67.6143 11.457 67.4058 11.8535Q67.1973 12.25 66.77 12.6089Q66.3428 12.9678 65.6934 13.1865Q65.0439 13.4053 64.2305 13.4053Q62.501 13.4053 61.5303 12.397Q60.5596 11.3887 60.5596 9.69336Q60.5596 8.54492 61.0039 7.66309Q61.4482 6.78125 62.2891 6.29932Q63.1299 5.81738 64.2988 5.81738Q65.0234 5.81738 65.6284 6.0293Q66.2334 6.24121 66.6538 6.57617Q67.0742 6.91113 67.2964 7.29053Q67.5186 7.66992 67.5186 7.99805Q67.5186 8.33301 67.269 8.56543Q67.0195 8.79785 66.6641 8.79785Q66.4316 8.79785 66.2778 8.67822Q66.124 8.55859 65.9326 8.29199Q65.5908 7.77246 65.2183 7.5127Q64.8457 7.25293 64.2715 7.25293Q63.4443 7.25293 62.9385 7.89893Q62.4326 8.54492 62.4326 9.66602Q62.4326 10.1924 62.5625 10.6333Q62.6924 11.0742 62.9385 11.3853Q63.1846 11.6963 63.5332 11.8569Q63.8818 12.0176 64.2988 12.0176Q64.8594 12.0176 65.2593 11.7578Q65.6592 11.498 65.9668 10.9648Q66.1377 10.6504 66.3359 10.4727Q66.5342 10.2949 66.8213 10.2949Q67.1631 10.2949 67.3887 10.5547Q67.6143 10.8145 67.6143 11.1084ZM72.9531 12.1816L72.9531 4.28613Q72.9531 3.6709 73.2334 3.36328Q73.5137 3.05566 73.958 3.05566Q74.416 3.05566 74.6997 3.35986Q74.9834 3.66406 74.9834 4.28613L74.9834 12.1816Q74.9834 12.8037 74.6997 13.1113Q74.416 13.4189 73.958 13.4189Q73.5205 13.4189 73.2368 13.1079Q72.9531 12.7969 72.9531 12.1816ZM83.1318 10.9785Q83.1318 11.751 82.7559 12.3013Q82.3799 12.8516 81.645 13.1353Q80.9102 13.4189 79.8574 13.4189Q78.8525 13.4189 78.1348 13.1113Q77.417 12.8037 77.0752 12.3423Q76.7334 11.8809 76.7334 11.416Q76.7334 11.1084 76.9521 10.8896Q77.1709 10.6709 77.5059 10.6709Q77.7998 10.6709 77.957 10.8145Q78.1143 10.958 78.2578 11.2178Q78.5449 11.7168 78.9448 11.9629Q79.3447 12.209 80.0352 12.209Q80.5957 12.209 80.9546 11.9595Q81.3135 11.71 81.3135 11.3887Q81.3135 10.8965 80.9409 10.6709Q80.5684 10.4453 79.7139 10.2402Q78.75 10.001 78.145 9.73779Q77.54 9.47461 77.1777 9.04395Q76.8154 8.61328 76.8154 7.98438Q76.8154 7.42383 77.1504 6.9248Q77.4854 6.42578 78.1382 6.12842Q78.791 5.83105 79.7139 5.83105Q80.4385 5.83105 81.0161 5.98145Q81.5938 6.13184 81.98 6.38477Q82.3662 6.6377 82.5679 6.94531Q82.7695 7.25293 82.7695 7.54688Q82.7695 7.86816 82.5542 8.07324Q82.3389 8.27832 81.9424 8.27832Q81.6553 8.27832 81.4536 8.11426Q81.252 7.9502 80.9922 7.62207Q80.7803 7.34863 80.4932 7.18457Q80.2061 7.02051 79.7139 7.02051Q79.208 7.02051 78.873 7.23584Q78.5381 7.45117 78.5381 7.77246Q78.5381 8.06641 78.7842 8.25439Q79.0303 8.44238 79.4473 8.56543Q79.8643 8.68848 80.5957 8.86621Q81.4639 9.07813 82.0142 9.37207Q82.5645 9.66602 82.8481 10.0659Q83.1318 10.4658 83.1318 10.9785ZM90.7197 10.9785Q90.7197 11.751 90.3438 12.3013Q89.9678 12.8516 89.2329 13.1353Q88.498 13.4189 87.4453 13.4189Q86.4404 13.4189 85.7227 13.1113Q85.0049 12.8037 84.6631 12.3423Q84.3213 11.8809 84.3213 11.416Q84.3213 11.1084 84.54 10.8896Q84.7588 10.6709 85.0938 10.6709Q85.3877 10.6709 85.5449 10.8145Q85.7021 10.958 85.8457 11.2178Q86.1328 11.7168 86.5327 11.9629Q86.9326 12.209 87.623 12.209Q88.1836 12.209 88.5425 11.9595Q88.9014 11.71 88.9014 11.3887Q88.9014 10.8965 88.5288 10.6709Q88.1563 10.4453 87.3018 10.2402Q86.3379 10.001 85.7329 9.73779Q85.1279 9.47461 84.7656 9.04395Q84.4033 8.61328 84.4033 7.98438Q84.4033 7.42383 84.7383 6.9248Q85.0732 6.42578 85.7261 6.12842Q86.3789 5.83105 87.3018 5.83105Q88.0264 5.83105 88.604 5.98145Q89.1816 6.13184 89.5679 6.38477Q89.9541 6.6377 90.1558 6.94531Q90.3574 7.25293 90.3574 7.54688Q90.3574 7.86816 90.1421 8.07324Q89.9268 8.27832 89.5303 8.27832Q89.2432 8.27832 89.0415 8.11426Q88.8398 7.9502 88.5801 7.62207Q88.3682 7.34863 88.0811 7.18457Q87.7939 7.02051 87.3018 7.02051Q86.7959 7.02051 86.4609 7.23584Q86.126 7.45117 86.126 7.77246Q86.126 8.06641 86.3721 8.25439Q86.6182 8.44238 87.0352 8.56543Q87.4521 8.68848 88.1836 8.86621Q89.0518 9.07813 89.6021 9.37207Q90.1523 9.66602 90.436 10.0659Q90.7197 10.4658 90.7197 10.9785ZM97.1455 12.3662L97.1455 12.127Q96.8105 12.5508 96.4414 12.8379Q96.0723 13.125 95.6348 13.2651Q95.1973 13.4053 94.6367 13.4053Q93.96 13.4053 93.4233 13.125Q92.8867 12.8447 92.5928 12.3525Q92.2441 11.7578 92.2441 10.6436L92.2441 6.94531Q92.2441 6.38477 92.4971 6.10791Q92.75 5.83105 93.167 5.83105Q93.5908 5.83105 93.8506 6.11133Q94.1104 6.3916 94.1104 6.94531L94.1104 9.93262Q94.1104 10.582 94.2197 11.0229Q94.3291 11.4639 94.6128 11.7134Q94.8965 11.9629 95.3818 11.9629Q95.8535 11.9629 96.2705 11.6826Q96.6875 11.4023 96.8789 10.9512Q97.0361 10.5547 97.0361 9.21484L97.0361 6.94531Q97.0361 6.3916 97.2959 6.11133Q97.5557 5.83106 97.9727 5.83105Q98.3896 5.83105 98.6426 6.10791Q98.8955 6.38477 98.8955 6.94531L98.8955 12.3525Q98.8955 12.8857 98.6528 13.1523Q98.4102 13.4189 98.0273 13.4189Q97.6445 13.4189 97.395 13.1421Q97.1455 12.8652 97.1455 12.3662ZM105.964 10.083L102.313 10.083Q102.32 10.7188 102.57 11.2041Q102.819 11.6895 103.233 11.9355Q103.646 12.1816 104.146 12.1816Q104.48 12.1816 104.757 12.103Q105.034 12.0244 105.294 11.8569Q105.554 11.6895 105.772 11.498Q105.991 11.3066 106.34 10.9785Q106.483 10.8555 106.75 10.8555Q107.037 10.8555 107.215 11.0127Q107.393 11.1699 107.393 11.457Q107.393 11.71 107.194 12.0483Q106.996 12.3867 106.596 12.6978Q106.196 13.0088 105.591 13.2139Q104.986 13.4189 104.2 13.4189Q102.402 13.4189 101.404 12.3936Q100.406 11.3682 100.406 9.61133Q100.406 8.78418 100.652 8.07666Q100.898 7.36914 101.37 6.86328Q101.842 6.35742 102.532 6.0874Q103.223 5.81738 104.063 5.81738Q105.157 5.81738 105.94 6.27881Q106.723 6.74023 107.112 7.47168Q107.502 8.20313 107.502 8.96191Q107.502 9.66602 107.099 9.87451Q106.695 10.083 105.964 10.083ZM102.313 9.02344L105.697 9.02344Q105.629 8.06641 105.181 7.59131Q104.733 7.11621 104.002 7.11621Q103.305 7.11621 102.857 7.59814Q102.409 8.08008 102.313 9.02344ZM119.212 4.90137L116.997 4.90137L116.997 12.1816Q116.997 12.8105 116.717 13.1147Q116.437 13.4189 115.992 13.4189Q115.541 13.4189 115.257 13.1113Q114.974 12.8037 114.974 12.1816L114.974 4.90137L112.759 4.90137Q112.239 4.90137 111.986 4.67236Q111.733 4.44336 111.733 4.06738Q111.733 3.67773 111.997 3.45215Q112.26 3.22656 112.759 3.22656L119.212 3.22656Q119.738 3.22656 119.995 3.45898Q120.251 3.69141 120.251 4.06738Q120.251 4.44336 119.991 4.67236Q119.731 4.90137 119.212 4.90137ZM122.91 10.7256L122.91 12.2842Q122.91 12.8516 122.644 13.1353Q122.377 13.4189 121.967 13.4189Q121.563 13.4189 121.304 13.1318Q121.044 12.8447 121.044 12.2842L121.044 7.08887Q121.044 5.83105 121.953 5.83105Q122.418 5.83105 122.623 6.125Q122.828 6.41895 122.849 6.99316Q123.184 6.41895 123.536 6.125Q123.888 5.83105 124.476 5.83105Q125.063 5.83105 125.617 6.125Q126.171 6.41895 126.171 6.9043Q126.171 7.24609 125.935 7.46826Q125.699 7.69043 125.426 7.69043Q125.323 7.69043 124.93 7.56396Q124.537 7.4375 124.236 7.4375Q123.826 7.4375 123.566 7.65283Q123.307 7.86816 123.163 8.29199Q123.02 8.71582 122.965 9.30029Q122.91 9.88477 122.91 10.7256ZM131.462 12.3662Q130.785 12.8926 130.153 13.1558Q129.521 13.4189 128.734 13.4189Q128.017 13.4189 127.473 13.1353Q126.93 12.8516 126.636 12.3662Q126.342 11.8809 126.342 11.3135Q126.342 10.5479 126.827 10.0078Q127.313 9.46777 128.16 9.2832Q128.338 9.24219 129.042 9.09863Q129.746 8.95508 130.249 8.83545Q130.751 8.71582 131.339 8.54492Q131.305 7.80664 131.042 7.46143Q130.778 7.11621 129.951 7.11621Q129.24 7.11621 128.881 7.31445Q128.522 7.5127 128.266 7.90918Q128.01 8.30566 127.904 8.43213Q127.798 8.55859 127.449 8.55859Q127.135 8.55859 126.906 8.35693Q126.677 8.15527 126.677 7.84082Q126.677 7.34863 127.025 6.88379Q127.374 6.41895 128.112 6.11816Q128.851 5.81738 129.951 5.81738Q131.182 5.81738 131.886 6.10791Q132.59 6.39844 132.88 7.02734Q133.171 7.65625 133.171 8.69531Q133.171 9.35156 133.167 9.80957Q133.164 10.2676 133.157 10.8281Q133.157 11.3545 133.332 11.9253Q133.506 12.4961 133.506 12.6602Q133.506 12.9473 133.236 13.1831Q132.966 13.4189 132.624 13.4189Q132.337 13.4189 132.057 13.1489Q131.776 12.8789 131.462 12.3662ZM131.339 9.66602Q130.929 9.81641 130.146 9.98389Q129.363 10.1514 129.063 10.23Q128.762 10.3086 128.488 10.5376Q128.215 10.7666 128.215 11.1768Q128.215 11.6006 128.536 11.8979Q128.857 12.1953 129.377 12.1953Q129.931 12.1953 130.399 11.9526Q130.867 11.71 131.086 11.3271Q131.339 10.9033 131.339 9.93262L131.339 9.66602ZM141.586 11.1084Q141.586 11.457 141.377 11.8535Q141.169 12.25 140.742 12.6089Q140.314 12.9678 139.665 13.1865Q139.016 13.4053 138.202 13.4053Q136.473 13.4053 135.502 12.397Q134.531 11.3887 134.531 9.69336Q134.531 8.54492 134.976 7.66309Q135.42 6.78125 136.261 6.29932Q137.102 5.81738 138.271 5.81738Q138.995 5.81738 139.6 6.0293Q140.205 6.24121 140.625 6.57617Q141.046 6.91113 141.268 7.29053Q141.49 7.66992 141.49 7.99805Q141.49 8.33301 141.241 8.56543Q140.991 8.79785 140.636 8.79785Q140.403 8.79785 140.25 8.67822Q140.096 8.55859 139.904 8.29199Q139.563 7.77246 139.19 7.5127Q138.817 7.25293 138.243 7.25293Q137.416 7.25293 136.91 7.89893Q136.404 8.54492 136.404 9.66602Q136.404 10.1924 136.534 10.6333Q136.664 11.0742 136.91 11.3853Q137.156 11.6963 137.505 11.8569Q137.854 12.0176 138.271 12.0176Q138.831 12.0176 139.231 11.7578Q139.631 11.498 139.938 10.9648Q140.109 10.6504 140.308 10.4727Q140.506 10.2949 140.793 10.2949Q141.135 10.2949 141.36 10.5547Q141.586 10.8145 141.586 11.1084ZM147.595 12.5645L145.947 9.85742L144.936 10.8145L144.936 12.2979Q144.936 12.8379 144.652 13.1284Q144.368 13.4189 143.999 13.4189Q143.568 13.4189 143.322 13.1318Q143.076 12.8447 143.076 12.2842L143.076 4.32715Q143.076 3.70508 143.315 3.38037Q143.555 3.05566 143.999 3.05566Q144.43 3.05566 144.683 3.34961Q144.936 3.64356 144.936 4.21777L144.936 8.74316L147.034 6.54199Q147.424 6.13184 147.629 5.98145Q147.834 5.83105 148.128 5.83105Q148.477 5.83105 148.709 6.05322Q148.941 6.27539 148.941 6.61035Q148.941 7.02051 148.183 7.7041L147.191 8.61328L149.105 11.6211Q149.317 11.9561 149.41 12.1304Q149.502 12.3047 149.502 12.4619Q149.502 12.9063 149.259 13.1626Q149.017 13.4189 148.62 13.4189Q148.278 13.4189 148.094 13.2344Q147.909 13.0498 147.595 12.5645ZM152.394 6.89063L152.394 12.2842Q152.394 12.8447 152.127 13.1318Q151.86 13.4189 151.45 13.4189Q151.04 13.4189 150.784 13.125Q150.527 12.8311 150.527 12.2842L150.527 6.94531Q150.527 6.3916 150.784 6.11133Q151.04 5.83106 151.45 5.83105Q151.86 5.83105 152.127 6.11133Q152.394 6.3916 152.394 6.89063ZM151.471 4.96289Q151.081 4.96289 150.804 4.72363Q150.527 4.48438 150.527 4.04688Q150.527 3.65039 150.811 3.39404Q151.095 3.1377 151.471 3.1377Q151.833 3.1377 152.113 3.37012Q152.394 3.60254 152.394 4.04688Q152.394 4.47754 152.12 4.72021Q151.847 4.96289 151.471 4.96289ZM155.846 6.86328L155.846 7.08887Q156.338 6.43945 156.922 6.13525Q157.507 5.83105 158.266 5.83105Q159.004 5.83105 159.585 6.15234Q160.166 6.47363 160.453 7.06152Q160.638 7.40332 160.692 7.7998Q160.747 8.19629 160.747 8.81152L160.747 12.2842Q160.747 12.8447 160.491 13.1318Q160.234 13.4189 159.824 13.4189Q159.407 13.4189 159.147 13.125Q158.888 12.8311 158.888 12.2842L158.888 9.17383Q158.888 8.25098 158.631 7.76221Q158.375 7.27344 157.609 7.27344Q157.11 7.27344 156.7 7.5708Q156.29 7.86816 156.099 8.3877Q155.962 8.80469 155.962 9.94629L155.962 12.2842Q155.962 12.8516 155.699 13.1353Q155.436 13.4189 155.019 13.4189Q154.615 13.4189 154.355 13.125Q154.096 12.8311 154.096 12.2842L154.096 6.89063Q154.096 6.35742 154.328 6.09424Q154.561 5.83105 154.964 5.83105Q155.21 5.83105 155.408 5.94727Q155.606 6.06348 155.726 6.2959Q155.846 6.52832 155.846 6.86328ZM169.47 7.19824L169.47 12.6191Q169.47 13.5488 169.271 14.2188Q169.073 14.8887 168.636 15.3262Q168.198 15.7637 167.491 15.9756Q166.783 16.1875 165.73 16.1875Q164.767 16.1875 164.008 15.9175Q163.249 15.6475 162.839 15.2202Q162.429 14.793 162.429 14.3418Q162.429 14 162.661 13.7847Q162.894 13.5693 163.222 13.5693Q163.632 13.5693 163.939 13.9316Q164.09 14.1162 164.25 14.3042Q164.411 14.4922 164.606 14.6255Q164.801 14.7588 165.074 14.8237Q165.348 14.8887 165.703 14.8887Q166.428 14.8887 166.828 14.687Q167.228 14.4854 167.388 14.123Q167.549 13.7607 167.576 13.3472Q167.604 12.9336 167.617 12.0176Q167.187 12.6191 166.623 12.9336Q166.059 13.248 165.279 13.248Q164.343 13.248 163.642 12.7695Q162.941 12.291 162.565 11.4297Q162.189 10.5684 162.189 9.44043Q162.189 8.59961 162.418 7.92285Q162.647 7.24609 163.071 6.78125Q163.495 6.31641 164.049 6.08057Q164.603 5.84473 165.266 5.84473Q166.059 5.84473 166.64 6.14893Q167.221 6.45313 167.72 7.10254L167.72 6.84961Q167.72 6.36426 167.959 6.09766Q168.198 5.83105 168.574 5.83105Q169.114 5.83105 169.292 6.18311Q169.47 6.53516 169.47 7.19824ZM164.063 9.56348Q164.063 10.6982 164.558 11.2793Q165.054 11.8604 165.84 11.8604Q166.305 11.8604 166.718 11.6108Q167.132 11.3613 167.392 10.8589Q167.651 10.3564 167.651 9.63867Q167.651 8.49707 167.149 7.86133Q166.646 7.22559 165.826 7.22559Q165.026 7.22559 164.544 7.83398Q164.063 8.44238 164.063 9.56348ZM182.602 10.2402Q182.602 11.1494 182.133 11.874Q181.665 12.5986 180.763 13.0088Q179.86 13.4189 178.623 13.4189Q177.14 13.4189 176.176 12.8584Q175.492 12.4551 175.065 11.7817Q174.638 11.1084 174.638 10.4727Q174.638 10.1035 174.894 9.84033Q175.15 9.57715 175.547 9.57715Q175.868 9.57715 176.09 9.78223Q176.313 9.9873 176.47 10.3906Q176.661 10.8691 176.883 11.1904Q177.105 11.5117 177.509 11.7202Q177.912 11.9287 178.568 11.9287Q179.471 11.9287 180.035 11.5083Q180.599 11.0879 180.599 10.459Q180.599 9.95996 180.294 9.64893Q179.99 9.33789 179.508 9.17383Q179.026 9.00977 178.22 8.8252Q177.14 8.57227 176.412 8.23389Q175.684 7.89551 175.256 7.31104Q174.829 6.72656 174.829 5.8584Q174.829 5.03125 175.28 4.38867Q175.731 3.74609 176.586 3.40088Q177.44 3.05566 178.596 3.05566Q179.519 3.05566 180.192 3.28467Q180.865 3.51367 181.31 3.89307Q181.754 4.27246 181.959 4.68945Q182.164 5.10645 182.164 5.50293Q182.164 5.86523 181.908 6.15576Q181.651 6.44629 181.269 6.44629Q180.92 6.44629 180.739 6.27197Q180.558 6.09766 180.346 5.70117Q180.072 5.13379 179.689 4.81592Q179.307 4.49805 178.459 4.49805Q177.673 4.49805 177.191 4.84326Q176.709 5.18848 176.709 5.67383Q176.709 5.97461 176.873 6.19336Q177.037 6.41211 177.324 6.56934Q177.611 6.72656 177.905 6.81543Q178.199 6.9043 178.876 7.0752Q179.724 7.27344 180.411 7.5127Q181.098 7.75195 181.58 8.09375Q182.062 8.43555 182.332 8.9585Q182.602 9.48145 182.602 10.2402ZM185.917 13.6514L186.088 13.2344L183.791 7.45117Q183.579 6.95215 183.579 6.72656Q183.579 6.4873 183.702 6.28223Q183.825 6.07715 184.041 5.9541Q184.256 5.83105 184.488 5.83105Q184.892 5.83105 185.097 6.0874Q185.302 6.34375 185.459 6.82227L187.038 11.416L188.535 7.14355Q188.713 6.62402 188.856 6.33008Q189 6.03613 189.161 5.93359Q189.321 5.83105 189.615 5.83105Q189.827 5.83105 190.022 5.94385Q190.217 6.05664 190.323 6.24805Q190.429 6.43945 190.429 6.65137Q190.401 6.78125 190.34 7.02051Q190.278 7.25977 190.189 7.50586L187.756 13.877Q187.441 14.7178 187.141 15.1963Q186.84 15.6748 186.344 15.9312Q185.849 16.1875 185.008 16.1875Q184.188 16.1875 183.777 16.0098Q183.367 15.832 183.367 15.3604Q183.367 15.0391 183.562 14.8647Q183.757 14.6904 184.14 14.6904Q184.29 14.6904 184.434 14.7314Q184.611 14.7725 184.741 14.7725Q185.063 14.7725 185.247 14.6768Q185.432 14.5811 185.579 14.3452Q185.726 14.1094 185.917 13.6514ZM197.695 10.9785Q197.695 11.751 197.319 12.3013Q196.943 12.8516 196.208 13.1353Q195.474 13.4189 194.421 13.4189Q193.416 13.4189 192.698 13.1113Q191.98 12.8037 191.639 12.3423Q191.297 11.8809 191.297 11.416Q191.297 11.1084 191.516 10.8896Q191.734 10.6709 192.069 10.6709Q192.363 10.6709 192.521 10.8145Q192.678 10.958 192.821 11.2178Q193.108 11.7168 193.508 11.9629Q193.908 12.209 194.599 12.209Q195.159 12.209 195.518 11.9595Q195.877 11.71 195.877 11.3887Q195.877 10.8965 195.504 10.6709Q195.132 10.4453 194.277 10.2402Q193.313 10.001 192.708 9.73779Q192.104 9.47461 191.741 9.04395Q191.379 8.61328 191.379 7.98438Q191.379 7.42383 191.714 6.9248Q192.049 6.42578 192.702 6.12842Q193.354 5.83105 194.277 5.83105Q195.002 5.83105 195.58 5.98145Q196.157 6.13184 196.543 6.38477Q196.93 6.6377 197.131 6.94531Q197.333 7.25293 197.333 7.54688Q197.333 7.86816 197.118 8.07324Q196.902 8.27832 196.506 8.27832Q196.219 8.27832 196.017 8.11426Q195.815 7.9502 195.556 7.62207Q195.344 7.34863 195.057 7.18457Q194.77 7.02051 194.277 7.02051Q193.771 7.02051 193.437 7.23584Q193.102 7.45117 193.102 7.77246Q193.102 8.06641 193.348 8.25439Q193.594 8.44238 194.011 8.56543Q194.428 8.68848 195.159 8.86621Q196.027 9.07813 196.578 9.37207Q197.128 9.66602 197.412 10.0659Q197.695 10.4658 197.695 10.9785ZM199.288 5.99512L199.493 5.99512L199.493 4.87402Q199.493 4.42285 199.517 4.1665Q199.541 3.91016 199.65 3.72559Q199.76 3.53418 199.965 3.41455Q200.17 3.29492 200.423 3.29492Q200.778 3.29492 201.065 3.56152Q201.257 3.73926 201.308 3.99561Q201.359 4.25195 201.359 4.72363L201.359 5.99512L202.043 5.99512Q202.439 5.99512 202.648 6.18311Q202.856 6.37109 202.856 6.66504Q202.856 7.04102 202.559 7.19141Q202.262 7.3418 201.708 7.3418L201.359 7.3418L201.359 10.7734Q201.359 11.2109 201.39 11.4468Q201.421 11.6826 201.554 11.8296Q201.688 11.9766 201.988 11.9766Q202.152 11.9766 202.433 11.9185Q202.713 11.8604 202.87 11.8604Q203.096 11.8604 203.277 12.0415Q203.458 12.2227 203.458 12.4893Q203.458 12.9404 202.966 13.1797Q202.474 13.4189 201.551 13.4189Q200.676 13.4189 200.225 13.125Q199.773 12.8311 199.633 12.3115Q199.493 11.792 199.493 10.9238L199.493 7.3418L199.247 7.3418Q198.844 7.3418 198.632 7.15039Q198.42 6.95898 198.42 6.66504Q198.42 6.37109 198.642 6.18311Q198.864 5.99512 199.288 5.99512ZM209.351 10.083L205.7 10.083Q205.707 10.7188 205.957 11.2041Q206.206 11.6895 206.62 11.9355Q207.033 12.1816 207.532 12.1816Q207.867 12.1816 208.144 12.103Q208.421 12.0244 208.681 11.8569Q208.94 11.6895 209.159 11.498Q209.378 11.3066 209.727 10.9785Q209.87 10.8555 210.137 10.8555Q210.424 10.8555 210.602 11.0127Q210.779 11.1699 210.779 11.457Q210.779 11.71 210.581 12.0483Q210.383 12.3867 209.983 12.6978Q209.583 13.0088 208.978 13.2139Q208.373 13.4189 207.587 13.4189Q205.789 13.4189 204.791 12.3936Q203.793 11.3682 203.793 9.61133Q203.793 8.78418 204.039 8.07666Q204.285 7.36914 204.757 6.86328Q205.229 6.35742 205.919 6.0874Q206.609 5.81738 207.45 5.81738Q208.544 5.81738 209.327 6.27881Q210.109 6.74023 210.499 7.47168Q210.889 8.20313 210.889 8.96191Q210.889 9.66602 210.485 9.87451Q210.082 10.083 209.351 10.083ZM205.7 9.02344L209.084 9.02344Q209.016 8.06641 208.568 7.59131Q208.12 7.11621 207.389 7.11621Q206.691 7.11621 206.244 7.59814Q205.796 8.08008 205.7 9.02344ZM218.668 9.76172L218.668 12.2432Q218.668 12.8311 218.401 13.125Q218.135 13.4189 217.697 13.4189Q217.273 13.4189 217.01 13.125Q216.747 12.8311 216.747 12.2432L216.747 9.26953Q216.747 8.56543 216.699 8.17578Q216.651 7.78613 216.439 7.53662Q216.228 7.28711 215.77 7.28711Q214.854 7.28711 214.563 7.91602Q214.272 8.54492 214.272 9.7207L214.272 12.2432Q214.272 12.8242 214.009 13.1216Q213.746 13.4189 213.315 13.4189Q212.892 13.4189 212.622 13.1216Q212.352 12.8242 212.352 12.2432L212.352 6.9043Q212.352 6.37793 212.594 6.10449Q212.837 5.83105 213.233 5.83105Q213.616 5.83105 213.873 6.0874Q214.129 6.34375 214.129 6.79492L214.129 6.97266Q214.614 6.3916 215.168 6.11816Q215.722 5.84473 216.398 5.84473Q217.103 5.84473 217.608 6.125Q218.114 6.40527 218.442 6.97266Q218.914 6.39844 219.454 6.12158Q219.994 5.84473 220.65 5.84473Q221.416 5.84473 221.97 6.14551Q222.523 6.44629 222.797 7.00684Q223.036 7.5127 223.036 8.59961L223.036 12.2432Q223.036 12.8311 222.77 13.125Q222.503 13.4189 222.065 13.4189Q221.642 13.4189 221.372 13.1216Q221.102 12.8242 221.102 12.2432L221.102 9.10547Q221.102 8.50391 221.05 8.1416Q220.999 7.7793 220.773 7.5332Q220.548 7.28711 220.09 7.28711Q219.721 7.28711 219.389 7.50586Q219.058 7.72461 218.873 8.09375Q218.668 8.56543 218.668 9.76172Z" clip-path="url(#clip_path_1)" fill="#210440" transform="translate(0 1.899)" />
</svg>