<?xml version="1.0" encoding="utf-8"?>
<svg width="141" height="83" viewBox="0 0 141 83" fill="none" xmlns="http://www.w3.org/2000/svg">
  <defs>
    <clipPath id="clip_path_1">
      <rect width="141" height="83" />
    </clipPath>
  </defs>
  <path d="M41.5313 84.4688L26.9004 84.4688L24.408 66.4219L17.8557 66.4219L15.334 84.4688L0.703125 84.4688L11.7458 17.25L30.468 17.25L41.5313 84.4688ZM23.2185 57.0938L21.0938 37.0313L19.0825 57.0938L23.2185 57.0938ZM58.4063 84.4688L43.6406 84.4688L43.6406 17.25L58.4063 17.25L58.4063 84.4688ZM92.1563 26.0156L83.9063 26.0156L83.9063 84.4688L69.1406 84.4688L69.1406 26.0156L60.8906 26.0156L60.8906 17.25L92.1563 17.25L92.1563 26.0156ZM94.9219 57.5625L108.328 57.5625L108.328 72.9844Q108.328 75.2813 111.118 75.2813Q113.813 75.2813 113.813 72.9844L113.813 65.0156Q113.813 61.3594 108.938 56.4375Q99.5156 47.2969 97.2188 44.1563Q94.9219 41.0156 94.9219 37.2656L94.9219 29.7188Q94.9219 16.6406 112.009 16.6406Q127.313 16.6406 127.313 28.5469L127.313 40.1719L113.906 40.1719L113.906 27.7969Q113.906 25.7813 111.66 25.7813Q109.031 25.7813 109.031 29.6719L109.313 34.0313Q109.313 37.7813 114.294 42.75Q123.551 51.6094 126.064 55.125Q128.578 58.6406 128.578 63.0938L128.578 71.6719Q128.578 85.0781 111.445 85.0781Q94.9219 85.0781 94.9219 72.8906L94.9219 57.5625Z" transform="translate(0 -9.711)" fill="#210440" clip-path="url(#clip_path_1)" />
</svg>