<?xml version="1.0" encoding="utf-8"?>
<svg width="38" height="38" viewBox="0 0 38 38" fill="none" xmlns="http://www.w3.org/2000/svg">
  <path id="Shape" d="M31 0C27.1518 0 24 3.15178 24 7C24 8.67314 24.5961 10.2138 25.5859 11.4219C25.5859 11.4219 20.7734 17.5 20.7734 17.5C20.7734 17.5 13.834 17.5 13.834 17.5C13.1417 14.3659 10.3335 12 7 12C3.15177 12 0 15.1518 0 19C0 22.8482 3.15177 26 7 26C10.3335 26 13.1417 23.6341 13.834 20.5C13.834 20.5 20.7734 20.5 20.7734 20.5C20.7734 20.5 25.5859 26.5781 25.5859 26.5781C24.5961 27.7862 24 29.3269 24 31C24 34.8482 27.1518 38 31 38C34.8482 38 38 34.8482 38 31C38 27.1518 34.8482 24 31 24C29.9027 24 28.8666 24.2631 27.9395 24.7188C27.9395 24.7188 23.4141 19 23.4141 19C23.4141 19 27.9395 13.2813 27.9395 13.2813C28.8666 13.7369 29.9027 14 31 14C34.8482 14 38 10.8482 38 7C38 3.15178 34.8482 0 31 0C31 0 31 0 31 0ZM31 3C33.2269 3 35 4.77309 35 7C35 9.22691 33.2269 11 31 11C28.7731 11 27 9.22691 27 7C27 4.77309 28.7731 3 31 3C31 3 31 3 31 3ZM7 15C9.22691 15 11 16.7731 11 19C11 21.2269 9.22691 23 7 23C4.77309 23 3 21.2269 3 19C3 16.7731 4.77309 15 7 15C7 15 7 15 7 15ZM31 27C33.2269 27 35 28.7731 35 31C35 33.2269 33.2269 35 31 35C28.7731 35 27 33.2269 27 31C27 28.7731 28.7731 27 31 27C31 27 31 27 31 27Z" fill="#210440" />
</svg>