<?xml version="1.0" encoding="utf-8"?>
<svg width="15" height="15" viewBox="0 0 40 40" fill="none" xmlns="http://www.w3.org/2000/svg">
  <path id="Shape" d="M20 0C8.97207 0 0 8.97207 0 20C0 31.0279 8.97207 40 20 40C31.0279 40 40 31.0279 40 20C40 8.97207 31.0279 0 20 0C20 0 20 0 20 0ZM20 3C29.4066 3 37 10.5934 37 20C37 29.4066 29.4066 37 20 37C10.5934 37 3 29.4066 3 20C3 10.5934 10.5934 3 20 3C20 3 20 3 20 3ZM19.9766 9.97851C19.1489 9.99144 18.4881 10.6723 18.5 11.5C18.5 11.5 18.5 18.5 18.5 18.5C18.5 18.5 11.5 18.5 11.5 18.5C10.959 18.4924 10.4559 18.7766 10.1832 19.2438C9.91046 19.7111 9.91046 20.2889 10.1832 20.7562C10.4559 21.2234 10.959 21.5076 11.5 21.5C11.5 21.5 18.5 21.5 18.5 21.5C18.5 21.5 18.5 28.5 18.5 28.5C18.4924 29.041 18.7766 29.5441 19.2438 29.8168C19.7111 30.0895 20.2889 30.0895 20.7562 29.8168C21.2234 29.5441 21.5076 29.041 21.5 28.5C21.5 28.5 21.5 21.5 21.5 21.5C21.5 21.5 28.5 21.5 28.5 21.5C29.041 21.5076 29.5441 21.2234 29.8168 20.7562C30.0895 20.2889 30.0895 19.7111 29.8168 19.2438C29.5441 18.7766 29.0409 18.4923 28.5 18.5C28.5 18.5 21.5 18.5 21.5 18.5C21.5 18.5 21.5 11.5 21.5 11.5C21.5058 11.0944 21.3471 10.7037 21.0601 10.417C20.7731 10.1304 20.3822 9.97217 19.9766 9.97851C19.9766 9.97851 19.9766 9.97851 19.9766 9.97851Z" fill="#808080" />
</svg>