<?xml version="1.0" encoding="utf-8"?>
<svg width="40" height="40" viewBox="0 0 40 40" fill="none" xmlns="http://www.w3.org/2000/svg">
  <path id="Shape" d="M20 0C8.97207 0 0 8.97207 0 20C0 31.0279 8.97207 40 20 40C31.0279 40 40 31.0279 40 20C40 8.97207 31.0279 0 20 0C20 0 20 0 20 0ZM20 3C29.4066 3 37 10.5934 37 20C37 29.4066 29.4066 37 20 37C10.5934 37 3 29.4066 3 20C3 10.5934 10.5934 3 20 3C20 3 20 3 20 3ZM27.4707 13.9863C27.0811 13.9977 26.7113 14.1602 26.4395 14.4395C26.4395 14.4395 17.5 23.3789 17.5 23.3789C17.5 23.3789 13.5605 19.4395 13.5605 19.4395C13.1843 19.0476 12.6256 18.8898 12.1 19.0268C11.5743 19.1638 11.1638 19.5743 11.0268 20.1C10.8898 20.6256 11.0476 21.1843 11.4395 21.5605C11.4395 21.5605 16.4395 26.5605 16.4395 26.5605C17.0252 27.1461 17.9748 27.1461 18.5605 26.5605C18.5605 26.5605 28.5605 16.5605 28.5605 16.5605C29.0034 16.1292 29.1364 15.4703 28.8953 14.901C28.6543 14.3317 28.0887 13.9685 27.4707 13.9863C27.4707 13.9863 27.4707 13.9863 27.4707 13.9863Z" fill="#210440" />
</svg>